<?xml version="1.0" standalone="no"?>
<!DOCTYPE svg PUBLIC "-//W3C//DTD SVG 20010904//EN"
 "http://www.w3.org/TR/2001/REC-SVG-20010904/DTD/svg10.dtd">
<svg version="1.0" xmlns="http://www.w3.org/2000/svg"
 width="142.000000pt" height="44.000000pt" viewBox="0 0 142.000000 44.000000"
 preserveAspectRatio="xMidYMid meet">

<g transform="translate(0.000000,44.000000) scale(0.100000,-0.100000)"
fill="#000000" stroke="none">
<path d="M261 356 c-16 -19 -6 -36 20 -36 15 0 20 6 17 22 -4 27 -21 33 -37
14z"/>
<path d="M521 356 c-16 -19 -6 -36 20 -36 15 0 20 6 17 22 -4 27 -21 33 -37
14z"/>
<path d="M260 210 c0 -73 2 -80 20 -80 18 0 20 7 20 80 0 73 -2 80 -20 80 -18
0 -20 -7 -20 -80z"/>
<path d="M346 276 c4 -11 18 -16 46 -16 34 0 39 -2 33 -19 -9 -29 9 -33 33 -8
32 33 15 50 -57 55 -53 4 -61 2 -55 -12z"/>
<path d="M520 210 c0 -73 2 -80 20 -80 18 0 20 7 20 80 0 73 -2 80 -20 80 -18
0 -20 -7 -20 -80z"/>
<path d="M361 186 c-38 -40 -23 -56 53 -56 54 0 64 3 60 15 -4 10 -20 15 -46
15 -23 0 -37 4 -33 10 3 5 2 17 -2 25 -8 13 -13 12 -32 -9z"/>
</g>
</svg>
